<svg width="13" height="12" viewBox="0 0 13 12" fill="none" xmlns="http://www.w3.org/2000/svg">
<path d="M8.5 4V1.34375H1.84375V4H8.5ZM5.09375 10.0625C5.48958 10.4583 5.95833 10.6562 6.5 10.6562C7.04167 10.6562 7.51042 10.4583 7.90625 10.0625C8.30208 9.66667 8.5 9.19792 8.5 8.65625C8.5 8.11458 8.30208 7.64583 7.90625 7.25C7.51042 6.85417 7.04167 6.65625 6.5 6.65625C5.95833 6.65625 5.48958 6.85417 5.09375 7.25C4.69792 7.64583 4.5 8.11458 4.5 8.65625C4.5 9.19792 4.69792 9.66667 5.09375 10.0625ZM9.84375 0L12.5 2.65625V10.6562C12.5 11.0104 12.3646 11.3229 12.0938 11.5938C11.8229 11.8646 11.5104 12 11.1562 12H1.84375C1.46875 12 1.14583 11.875 0.875 11.625C0.625 11.3542 0.5 11.0312 0.5 10.6562V1.34375C0.5 0.96875 0.625 0.65625 0.875 0.40625C1.14583 0.135417 1.46875 0 1.84375 0H9.84375Z" fill="#FDF8F8"/>
</svg>
